HIERARCHY
ROOT Hips
{
 OFFSET 0.000000 0.000000 0.000000
 CHANNELS 6 Xposition Yposition Zposition Yrotation Xrotation Zrotation
 JOINT Chest
 {
  OFFSET 0.000000 9.585900 0.002600
  CHANNELS 3 Yrotation Xrotation Zrotation
  JOINT Chest2
  {
   OFFSET 0.000000 9.601200 -0.005300
   CHANNELS 3 Yrotation Xrotation Zrotation
   JOINT Chest3
   {
    OFFSET 0.000000 9.561800 0.000000
    CHANNELS 3 Yrotation Xrotation Zrotation
    JOINT Chest4
    {
     OFFSET 0.000000 9.552100 0.000000
     CHANNELS 3 Yrotation Xrotation Zrotation
     JOINT Neck
     {
      OFFSET 0.000000 14.453000 0.000000
      CHANNELS 3 Yrotation Xrotation Zrotation
      JOINT Head
      {
       OFFSET 0.000000 8.936500 -0.011300
       CHANNELS 3 Yrotation Xrotation Zrotation
       End Site
       {
        OFFSET 0.000000 17.073600 -0.006000
       }
      }
     }
     JOINT RightCollar
     {
      OFFSET -2.921100 9.558500 0.000000
      CHANNELS 3 Yrotation Xrotation Zrotation
      JOINT RightShoulder
      {
       OFFSET -13.519700 0.000000 0.000000
       CHANNELS 3 Yrotation Xrotation Zrotation
       JOINT RightElbow
       {
        OFFSET 0.000000 -29.696600 0.000000
        CHANNELS 3 Yrotation Xrotation Zrotation
        JOINT RightWrist
        {
         OFFSET 0.000000 -24.004700 0.000000
         CHANNELS 3 Yrotation Xrotation Zrotation
         End Site
         {
          OFFSET 0.000000 -17.728500 0.000000
         }
        }
       }
      }
     }
     JOINT LeftCollar
     {
      OFFSET 2.921100 9.558500 0.000000
      CHANNELS 3 Yrotation Xrotation Zrotation
      JOINT LeftShoulder
      {
       OFFSET 13.519700 0.000000 0.000000
       CHANNELS 3 Yrotation Xrotation Zrotation
       JOINT LeftElbow
       {
        OFFSET 0.000000 -29.696600 0.000000
        CHANNELS 3 Yrotation Xrotation Zrotation
        JOINT LeftWrist
        {
         OFFSET 0.000000 -24.004700 0.000000
         CHANNELS 3 Yrotation Xrotation Zrotation
         End Site
         {
          OFFSET 0.000000 -17.728500 0.000000
         }
        }
       }
      }
     }
    }
   }
  }
 }
 JOINT RightHip
 {
  OFFSET -7.771700 -0.012900 -0.001300
  CHANNELS 3 Yrotation Xrotation Zrotation
  JOINT RightKnee
  {
   OFFSET 0.000000 -40.869800 0.001200
   CHANNELS 3 Yrotation Xrotation Zrotation
   JOINT RightAnkle
   {
    OFFSET 0.000000 -39.717900 0.002100
    CHANNELS 3 Yrotation Xrotation Zrotation
    JOINT RightToe
    {
     OFFSET 0.000000 -4.965400 11.033500
     CHANNELS 3 Yrotation Xrotation Zrotation
     End Site
     {
      OFFSET 0.000000 -1.423100 5.872300
     }
    }
   }
  }
 }
 JOINT LeftHip
 {
  OFFSET 7.771700 -0.012900 -0.001300
  CHANNELS 3 Yrotation Xrotation Zrotation
  JOINT LeftKnee
  {
   OFFSET 0.000000 -40.869800 0.001200
   CHANNELS 3 Yrotation Xrotation Zrotation
   JOINT LeftAnkle
   {
    OFFSET 0.000000 -39.717900 0.002100
    CHANNELS 3 Yrotation Xrotation Zrotation
    JOINT LeftToe
    {
     OFFSET 0.000000 -4.965400 11.033500
     CHANNELS 3 Yrotation Xrotation Zrotation
     End Site
     {
      OFFSET 0.000000 -1.423100 5.872300
     }
    }
   }
  }
 }
}
MOTION
Frames: 6
Frame Time: 0.008333
-32.275834 52.601159 26.449300 178.875594 -30.574017 0.514317 -1.246515 13.327467 0.321143 -0.087044 1.049581 0.050424 -0.216511 1.903964 0.069885 -1.184199 12.100434 0.393278 -6.158604 19.055845 -1.512104 -6.274705 -5.423740 -0.217579 2.939916 15.012189 9.969079 14.058829 -4.003518 -45.497455 148.814463 -42.050907 171.851457 -3.255160 0.213284 -12.442157 4.576285 16.517075 -11.177456 -18.350897 0.099954 32.790892 -146.936239 -41.020471 -170.807990 19.298883 5.296655 14.165264 -9.223252 -52.403479 0.038045 -51.216876 80.665779 -59.139570 -2.791713 -1.090258 4.719357 0.001215 -0.402106 0.187511 5.651252 -49.330600 -5.448983 35.754470 83.408118 42.010778 -0.883907 -10.942114 -1.058474 0.046441 -0.001705 0.008730
-32.290147 52.563249 26.462622 178.789268 -30.545546 0.607459 -1.219420 13.356284 0.252495 -0.083329 1.045005 0.054663 -0.199351 1.882129 0.072867 -1.192360 12.159092 0.394047 -6.168458 19.051384 -1.502532 -6.299128 -5.410334 -0.199504 2.981386 14.981682 9.973663 14.145890 -4.030037 -45.491387 148.799716 -42.099556 171.858218 -3.226730 0.214725 -12.473395 4.566783 16.457422 -11.191888 -18.330595 0.089471 32.797265 -146.785076 -41.006507 -170.857771 19.283765 5.268720 14.188500 -9.080084 -52.433255 -0.025169 -50.775962 80.679649 -58.749296 -2.804985 -0.951695 4.780773 -0.032878 -0.446805 0.134956 5.778656 -49.372348 -5.523285 35.793438 83.419624 42.038385 -0.911491 -10.981003 -1.058993 0.072611 0.049498 0.022653
-32.299327 52.525687 26.474789 178.729385 -30.526885 0.656617 -1.197507 13.384091 0.216914 -0.085215 1.049844 0.057592 -0.203626 1.906041 0.069340 -1.178389 12.169983 0.399661 -6.169575 19.032202 -1.491356 -6.320823 -5.385239 -0.187848 3.007763 14.915223 9.974718 14.233980 -4.022609 -45.471654 148.785846 -42.149889 171.862989 -3.239980 0.236559 -12.497875 4.508862 16.442898 -11.211748 -18.276712 0.036112 32.815210 -146.622490 -40.994515 -170.912332 19.267057 5.240010 14.219088 -9.007698 -52.445475 -0.027503 -50.331115 80.728904 -58.350688 -2.882143 -0.914321 4.846708 -0.034707 -0.422911 0.081438 5.844851 -49.409415 -5.550974 35.873110 83.429592 42.107754 -0.917065 -11.020014 -1.057347 0.077444 0.099792 0.027257
-32.303751 52.491768 26.485557 178.675293 -30.515974 0.678438 -1.175354 13.421128 0.202713 -0.083020 1.054467 0.061456 -0.210975 1.928559 0.063989 -1.165979 12.177384 0.404987 -6.150048 18.974541 -1.476145 -6.346178 -5.336836 -0.180843 3.047519 14.965671 9.989646 14.331480 -4.122743 -45.488092 148.769445 -42.200129 171.866055 -3.252676 0.249098 -12.510133 4.454859 16.434071 -11.231918 -18.228353 0.000170 32.847937 -146.451162 -40.980828 -170.953433 19.251738 5.215695 14.254149 -8.963966 -52.442627 0.014176 -49.901934 80.797058 -57.962435 -2.995407 -0.935135 4.925263 -0.030879 -0.369587 0.027355 5.894864 -49.438274 -5.555241 35.975202 83.440341 42.214912 -0.916573 -11.064745 -1.057592 0.072085 0.152508 0.029179
-32.304916 52.462084 26.497640 178.640135 -30.489920 0.678331 -1.167057 13.445041 0.197698 -0.082087 1.056383 0.066286 -0.211296 1.936102 0.059867 -1.148278 12.158565 0.415756 -6.171346 19.022088 -1.473576 -6.357235 -5.318861 -0.173611 3.074760 15.017640 9.998121 14.379165 -4.197311 -45.501578 148.759465 -42.224908 171.867302 -3.277706 0.265372 -12.509725 4.409295 16.453870 -11.252510 -18.190523 -0.043087 32.878631 -146.278535 -40.985902 -171.017495 19.237389 5.198705 14.291758 -8.934432 -52.451133 0.078828 -49.493470 80.881378 -57.591322 -3.138756 -1.011388 5.031036 -0.045198 -0.283250 -0.036645 5.930970 -49.483920 -5.550412 35.997022 83.448463 42.246589 -0.908814 -11.092713 -1.049721 0.063988 0.193187 0.025202
-32.304810 52.439732 26.507594 178.628374 -30.468245 0.668554 -1.172473 13.461844 0.195398 -0.089689 1.071410 0.061458 -0.207961 1.940932 0.060521 -1.147661 12.191082 0.413463 -6.200383 19.090679 -1.468367 -6.353611 -5.335846 -0.155544 3.112169 15.000989 10.011939 14.496401 -4.228841 -45.485745 148.712846 -42.286380 171.888161 -3.253126 0.247806 -12.510865 4.384025 16.423061 -11.268072 -18.153073 -0.096310 32.910275 -146.108342 -41.003922 -171.092089 19.221803 5.190638 14.329798 -8.905118 -52.455410 0.137939 -49.194716 80.969278 -57.329903 -3.289774 -1.142118 5.167219 0.028909 -0.182866 -0.087406 5.957951 -49.520311 -5.553581 35.891102 83.457894 42.153609 -0.883884 -11.108033 -1.038656 0.049237 0.224449 0.019881
